<svg width="22" height="22" viewBox="0 0 22 22" fill="none" xmlns="http://www.w3.org/2000/svg">
<path d="M4.92824 22H0.366167V7.29724H4.92824V22ZM2.6472 5.29396C1.18254 5.29396 0 4.10883 0 2.64698C0 1.18512 1.18254 0 2.6472 0C4.10587 0 5.2884 1.18512 5.2884 2.64698C5.2884 4.10282 4.10587 5.29396 2.6472 5.29396ZM22 22H17.4439V14.8532C17.4439 13.1507 17.4139 10.9549 15.0729 10.9549C12.7018 10.9549 12.3416 12.8138 12.3416 14.7328V22H7.79154V7.29724H12.1615V9.30654H12.2216C12.8278 8.15149 14.3165 6.93027 16.5315 6.93027C21.1476 6.93027 22 9.9743 22 13.9327V22Z" fill="#FFFBE9"/>
</svg>
