<svg width="120" height="49" viewBox="0 0 120 49" fill="none" xmlns="http://www.w3.org/2000/svg">
<path fill-rule="evenodd" clip-rule="evenodd" d="M0 1H11.3637L37.6471 27.4054V21.7295L28.2353 12.3003V1H39.6045L45 6.49714V46H33.6373L0 12.3003V1ZM2.64706 3.64706V11.2053L34.7352 43.3529H42.3529V7.57914L38.4935 3.64706H30.8824V11.2053L40.2941 20.6345V33.817L10.2637 3.64706H2.64706Z" fill="#FFFBE9"/>
<path d="M64.232 8.648C64.232 10.1787 63.8747 11.3147 63.16 12.056C62.4453 12.792 61.4507 13.16 60.176 13.16C58.9067 13.16 57.9147 12.792 57.2 12.056C56.4853 11.3147 56.128 10.1787 56.128 8.648C56.128 8.41333 56.128 8.16533 56.128 7.904C56.128 7.63733 56.128 7.35733 56.128 7.064V1.2H57.496V7.184C57.496 7.46133 57.496 7.72 57.496 7.96C57.496 8.2 57.496 8.42133 57.496 8.624C57.496 9.808 57.7227 10.656 58.176 11.168C58.6293 11.6747 59.296 11.928 60.176 11.928C61.0613 11.928 61.7307 11.6747 62.184 11.168C62.6427 10.656 62.872 9.808 62.872 8.624V1.2H64.232V8.648ZM72.2634 13V8.928C72.2634 8.68267 72.2634 8.48267 72.2634 8.328C72.2634 8.168 72.2634 8.016 72.2634 7.872C72.2634 7.42933 72.1887 7.04267 72.0394 6.712C71.89 6.38133 71.6554 6.12533 71.3354 5.944C71.0154 5.76267 70.5967 5.672 70.0794 5.672C69.626 5.672 69.2047 5.78933 68.8154 6.024C68.4314 6.25333 68.122 6.56533 67.8874 6.96C67.658 7.34933 67.5434 7.78667 67.5434 8.272L66.7674 7.976C66.7674 7.30933 66.93 6.704 67.2554 6.16C67.586 5.616 68.0234 5.184 68.5674 4.864C69.1167 4.53867 69.714 4.376 70.3594 4.376C71.0154 4.376 71.5887 4.50133 72.0794 4.752C72.57 5.00267 72.9487 5.36267 73.2154 5.832C73.4874 6.296 73.6234 6.856 73.6234 7.512C73.6234 7.74667 73.6234 8.00267 73.6234 8.28C73.6234 8.55733 73.6234 8.816 73.6234 9.056V13H72.2634ZM66.1834 13V4.504H67.5434V13H66.1834ZM75.6759 13V4.504H77.0199V13H75.6759ZM76.3559 2.552C76.1052 2.552 75.8865 2.48267 75.6999 2.344C75.5185 2.2 75.4279 2.00533 75.4279 1.76C75.4279 1.52 75.5185 1.33067 75.6999 1.192C75.8865 1.048 76.1052 0.976 76.3559 0.976C76.6065 0.976 76.8225 1.048 77.0039 1.192C77.1852 1.33067 77.2759 1.52 77.2759 1.76C77.2759 2.00533 77.1852 2.2 77.0039 2.344C76.8225 2.48267 76.6065 2.552 76.3559 2.552ZM82.509 13.128C82.2477 13.128 81.9917 13.0987 81.741 13.04C81.4903 12.9813 81.2637 12.8773 81.061 12.728C80.8637 12.5733 80.7063 12.3573 80.589 12.08C80.4717 11.7973 80.413 11.4347 80.413 10.992C80.413 10.88 80.413 10.7653 80.413 10.648C80.413 10.5253 80.413 10.3973 80.413 10.264V5.704H78.341V4.504H79.669C79.8503 4.504 79.9917 4.49867 80.093 4.488C80.1943 4.472 80.2663 4.43733 80.309 4.384C80.357 4.32533 80.3863 4.23733 80.397 4.12C80.4077 3.99733 80.413 3.82933 80.413 3.616V1.688H81.781V4.504H84.437V5.704H81.781V9.824C81.781 9.94133 81.781 10.056 81.781 10.168C81.781 10.28 81.781 10.384 81.781 10.48C81.781 10.9333 81.8343 11.288 81.941 11.544C82.053 11.8 82.301 11.928 82.685 11.928C82.8397 11.928 82.9863 11.9147 83.125 11.888C83.2637 11.8613 83.3677 11.8347 83.437 11.808V12.992C83.3463 13.024 83.2183 13.0533 83.053 13.08C82.893 13.112 82.7117 13.128 82.509 13.128ZM85.939 9.296V8.08H92.507L92.267 8.48C92.267 8.448 92.267 8.41867 92.267 8.392C92.267 8.36 92.267 8.33067 92.267 8.304C92.267 7.81333 92.163 7.36533 91.955 6.96C91.7523 6.54933 91.4483 6.22133 91.043 5.976C90.6377 5.73067 90.1363 5.608 89.539 5.608C88.9363 5.608 88.4057 5.736 87.947 5.992C87.4883 6.248 87.131 6.61067 86.875 7.08C86.619 7.544 86.491 8.09867 86.491 8.744C86.491 9.4 86.6137 9.96533 86.859 10.44C87.1097 10.9147 87.4643 11.28 87.923 11.536C88.3817 11.792 88.9257 11.92 89.555 11.92C90.003 11.92 90.3923 11.8747 90.723 11.784C91.0537 11.688 91.3257 11.5627 91.539 11.408C91.7577 11.248 91.923 11.0747 92.035 10.888C92.147 10.7013 92.2137 10.5147 92.235 10.328H93.595C93.5683 10.6693 93.4617 11.008 93.275 11.344C93.0883 11.68 92.8243 11.9867 92.483 12.264C92.1417 12.536 91.723 12.7547 91.227 12.92C90.731 13.0853 90.1603 13.168 89.515 13.168C88.6617 13.168 87.9097 12.9813 87.259 12.608C86.6083 12.2347 86.0963 11.7173 85.723 11.056C85.355 10.3947 85.171 9.63467 85.171 8.776C85.171 7.90667 85.3577 7.144 85.731 6.488C86.1043 5.82667 86.619 5.30933 87.275 4.936C87.931 4.56267 88.6803 4.376 89.523 4.376C90.3817 4.376 91.1257 4.56267 91.755 4.936C92.3843 5.30933 92.8697 5.82133 93.211 6.472C93.5523 7.11733 93.723 7.85333 93.723 8.68C93.723 8.76533 93.7203 8.87733 93.715 9.016C93.7097 9.15467 93.7017 9.248 93.691 9.296H85.939ZM58.832 29.064L55.624 17.2H57.12L59.872 27.992H59.776L62.496 17.2H64L60.824 29.064H58.832ZM65.2484 25.296V24.08H71.8164L71.5764 24.48C71.5764 24.448 71.5764 24.4187 71.5764 24.392C71.5764 24.36 71.5764 24.3307 71.5764 24.304C71.5764 23.8133 71.4724 23.3653 71.2644 22.96C71.0617 22.5493 70.7577 22.2213 70.3524 21.976C69.947 21.7307 69.4457 21.608 68.8484 21.608C68.2457 21.608 67.715 21.736 67.2564 21.992C66.7977 22.248 66.4404 22.6107 66.1844 23.08C65.9284 23.544 65.8004 24.0987 65.8004 24.744C65.8004 25.4 65.923 25.9653 66.1684 26.44C66.419 26.9147 66.7737 27.28 67.2324 27.536C67.691 27.792 68.235 27.92 68.8644 27.92C69.3124 27.92 69.7017 27.8747 70.0324 27.784C70.363 27.688 70.635 27.5627 70.8484 27.408C71.067 27.248 71.2324 27.0747 71.3444 26.888C71.4564 26.7013 71.523 26.5147 71.5444 26.328H72.9044C72.8777 26.6693 72.771 27.008 72.5844 27.344C72.3977 27.68 72.1337 27.9867 71.7924 28.264C71.451 28.536 71.0324 28.7547 70.5364 28.92C70.0404 29.0853 69.4697 29.168 68.8244 29.168C67.971 29.168 67.219 28.9813 66.5684 28.608C65.9177 28.2347 65.4057 27.7173 65.0324 27.056C64.6644 26.3947 64.4804 25.6347 64.4804 24.776C64.4804 23.9067 64.667 23.144 65.0404 22.488C65.4137 21.8267 65.9284 21.3093 66.5844 20.936C67.2404 20.5627 67.9897 20.376 68.8324 20.376C69.691 20.376 70.435 20.5627 71.0644 20.936C71.6937 21.3093 72.179 21.8213 72.5204 22.472C72.8617 23.1173 73.0324 23.8533 73.0324 24.68C73.0324 24.7653 73.0297 24.8773 73.0244 25.016C73.019 25.1547 73.011 25.248 73.0004 25.296H65.2484ZM80.8321 29V24.928C80.8321 24.6827 80.8321 24.4827 80.8321 24.328C80.8321 24.168 80.8321 24.016 80.8321 23.872C80.8321 23.4293 80.7575 23.0427 80.6081 22.712C80.4588 22.3813 80.2241 22.1253 79.9041 21.944C79.5841 21.7627 79.1655 21.672 78.6481 21.672C78.1948 21.672 77.7735 21.7893 77.3841 22.024C77.0001 22.2533 76.6908 22.5653 76.4561 22.96C76.2268 23.3493 76.1121 23.7867 76.1121 24.272L75.3361 23.976C75.3361 23.3093 75.4988 22.704 75.8241 22.16C76.1548 21.616 76.5921 21.184 77.1361 20.864C77.6855 20.5387 78.2828 20.376 78.9281 20.376C79.5841 20.376 80.1575 20.5013 80.6481 20.752C81.1388 21.0027 81.5175 21.3627 81.7841 21.832C82.0561 22.296 82.1921 22.856 82.1921 23.512C82.1921 23.7467 82.1921 24.0027 82.1921 24.28C82.1921 24.5573 82.1921 24.816 82.1921 25.056V29H80.8321ZM74.7521 29V20.504H76.1121V29H74.7521ZM87.2902 29.128C87.0289 29.128 86.7729 29.0987 86.5222 29.04C86.2716 28.9813 86.0449 28.8773 85.8422 28.728C85.6449 28.5733 85.4876 28.3573 85.3702 28.08C85.2529 27.7973 85.1942 27.4347 85.1942 26.992C85.1942 26.88 85.1942 26.7653 85.1942 26.648C85.1942 26.5253 85.1942 26.3973 85.1942 26.264V21.704H83.1222V20.504H84.4502C84.6316 20.504 84.7729 20.4987 84.8742 20.488C84.9756 20.472 85.0476 20.4373 85.0902 20.384C85.1382 20.3253 85.1676 20.2373 85.1782 20.12C85.1889 19.9973 85.1942 19.8293 85.1942 19.616V17.688H86.5622V20.504H89.2182V21.704H86.5622V25.824C86.5622 25.9413 86.5622 26.056 86.5622 26.168C86.5622 26.28 86.5622 26.384 86.5622 26.48C86.5622 26.9333 86.6156 27.288 86.7222 27.544C86.8342 27.8 87.0822 27.928 87.4662 27.928C87.6209 27.928 87.7676 27.9147 87.9062 27.888C88.0449 27.8613 88.1489 27.8347 88.2182 27.808V28.992C88.1276 29.024 87.9996 29.0533 87.8342 29.08C87.6742 29.112 87.4929 29.128 87.2902 29.128ZM93.6975 29.152C93.0895 29.152 92.5828 29.048 92.1775 28.84C91.7722 28.6267 91.4495 28.352 91.2095 28.016C90.9748 27.68 90.8068 27.3173 90.7055 26.928C90.6095 26.5333 90.5615 26.1547 90.5615 25.792C90.5615 25.5893 90.5615 25.3813 90.5615 25.168C90.5615 24.9493 90.5615 24.7307 90.5615 24.512V20.504H91.9295V24.336C91.9295 24.5333 91.9295 24.728 91.9295 24.92C91.9295 25.112 91.9295 25.2933 91.9295 25.464C91.9295 25.896 91.9882 26.296 92.1055 26.664C92.2282 27.032 92.4388 27.3307 92.7375 27.56C93.0362 27.784 93.4468 27.896 93.9695 27.896C94.4602 27.896 94.8895 27.7493 95.2575 27.456C95.6255 27.1573 95.9135 26.7867 96.1215 26.344C96.3295 25.896 96.4335 25.4507 96.4335 25.008L97.2255 25.336C97.2255 25.8053 97.1428 26.2667 96.9775 26.72C96.8122 27.168 96.5748 27.576 96.2655 27.944C95.9615 28.312 95.5908 28.6053 95.1535 28.824C94.7215 29.0427 94.2362 29.152 93.6975 29.152ZM96.4335 29V20.504H97.7935V29H96.4335ZM99.7553 29V20.504H101.115V23.112L100.667 22.952C100.699 22.6373 100.779 22.328 100.907 22.024C101.035 21.7147 101.211 21.4373 101.435 21.192C101.665 20.9413 101.95 20.744 102.291 20.6C102.633 20.4507 103.033 20.376 103.491 20.376C103.833 20.376 104.11 20.4053 104.323 20.464C104.542 20.5173 104.678 20.56 104.731 20.592L104.379 21.928C104.326 21.8907 104.217 21.8427 104.051 21.784C103.891 21.7253 103.662 21.696 103.363 21.696C102.921 21.696 102.553 21.776 102.259 21.936C101.971 22.096 101.742 22.3093 101.571 22.576C101.406 22.8373 101.289 23.1227 101.219 23.432C101.15 23.7413 101.115 24.048 101.115 24.352V29H99.7553ZM106.076 25.296V24.08H112.644L112.404 24.48C112.404 24.448 112.404 24.4187 112.404 24.392C112.404 24.36 112.404 24.3307 112.404 24.304C112.404 23.8133 112.3 23.3653 112.092 22.96C111.89 22.5493 111.586 22.2213 111.18 21.976C110.775 21.7307 110.274 21.608 109.676 21.608C109.074 21.608 108.543 21.736 108.084 21.992C107.626 22.248 107.268 22.6107 107.012 23.08C106.756 23.544 106.628 24.0987 106.628 24.744C106.628 25.4 106.751 25.9653 106.996 26.44C107.247 26.9147 107.602 27.28 108.06 27.536C108.519 27.792 109.063 27.92 109.692 27.92C110.14 27.92 110.53 27.8747 110.86 27.784C111.191 27.688 111.463 27.5627 111.676 27.408C111.895 27.248 112.06 27.0747 112.172 26.888C112.284 26.7013 112.351 26.5147 112.372 26.328H113.732C113.706 26.6693 113.599 27.008 113.412 27.344C113.226 27.68 112.962 27.9867 112.62 28.264C112.279 28.536 111.86 28.7547 111.364 28.92C110.868 29.0853 110.298 29.168 109.652 29.168C108.799 29.168 108.047 28.9813 107.396 28.608C106.746 28.2347 106.234 27.7173 105.86 27.056C105.492 26.3947 105.308 25.6347 105.308 24.776C105.308 23.9067 105.495 23.144 105.868 22.488C106.242 21.8267 106.756 21.3093 107.412 20.936C108.068 20.5627 108.818 20.376 109.66 20.376C110.519 20.376 111.263 20.5627 111.892 20.936C112.522 21.3093 113.007 21.8213 113.348 22.472C113.69 23.1173 113.86 23.8533 113.86 24.68C113.86 24.7653 113.858 24.8773 113.852 25.016C113.847 25.1547 113.839 25.248 113.828 25.296H106.076ZM59.696 45.16C58.88 45.16 58.1813 45.032 57.6 44.776C57.024 44.5147 56.5813 44.1227 56.272 43.6C55.9627 43.0773 55.808 42.4267 55.808 41.648C55.808 41.5413 55.808 41.4507 55.808 41.376C55.808 41.3013 55.808 41.2107 55.808 41.104H57.176C57.176 41.2053 57.176 41.2907 57.176 41.36C57.176 41.4293 57.176 41.5173 57.176 41.624C57.176 42.44 57.3893 43.0293 57.816 43.392C58.2427 43.7493 58.864 43.928 59.68 43.928C60.5227 43.928 61.16 43.784 61.592 43.496C62.024 43.208 62.24 42.7413 62.24 42.096C62.24 41.6427 62.1147 41.2667 61.864 40.968C61.6187 40.664 61.2773 40.408 60.84 40.2C60.4027 39.9867 59.8933 39.792 59.312 39.616C58.656 39.4133 58.0693 39.1573 57.552 38.848C57.04 38.5387 56.6347 38.1573 56.336 37.704C56.0427 37.2453 55.896 36.688 55.896 36.032C55.896 35.392 56.0507 34.8507 56.36 34.408C56.6747 33.9653 57.112 33.6293 57.672 33.4C58.232 33.1707 58.8827 33.056 59.624 33.056C60.408 33.056 61.088 33.1787 61.664 33.424C62.2453 33.664 62.6933 34.032 63.008 34.528C63.328 35.0187 63.488 35.6373 63.488 36.384C63.488 36.5013 63.488 36.6027 63.488 36.688C63.488 36.768 63.488 36.8667 63.488 36.984H62.12C62.12 36.8827 62.12 36.792 62.12 36.712C62.12 36.632 62.12 36.5413 62.12 36.44C62.12 35.6613 61.9093 35.1093 61.488 34.784C61.0667 34.4533 60.4533 34.288 59.648 34.288C58.8747 34.288 58.2773 34.424 57.856 34.696C57.4347 34.968 57.224 35.4133 57.224 36.032C57.224 36.496 57.352 36.88 57.608 37.184C57.8693 37.4827 58.224 37.7387 58.672 37.952C59.12 38.16 59.632 38.36 60.208 38.552C60.9067 38.7813 61.5067 39.0427 62.008 39.336C62.5147 39.624 62.9013 39.984 63.168 40.416C63.44 40.848 63.576 41.392 63.576 42.048C63.576 42.704 63.4187 43.264 63.104 43.728C62.7947 44.192 62.3493 44.5467 61.768 44.792C61.192 45.0373 60.5013 45.16 59.696 45.16ZM68.5746 45.128C68.3133 45.128 68.0573 45.0987 67.8066 45.04C67.556 44.9813 67.3293 44.8773 67.1266 44.728C66.9293 44.5733 66.772 44.3573 66.6546 44.08C66.5373 43.7973 66.4786 43.4347 66.4786 42.992C66.4786 42.88 66.4786 42.7653 66.4786 42.648C66.4786 42.5253 66.4786 42.3973 66.4786 42.264V37.704H64.4066V36.504H65.7346C65.916 36.504 66.0573 36.4987 66.1586 36.488C66.26 36.472 66.332 36.4373 66.3746 36.384C66.4226 36.3253 66.452 36.2373 66.4626 36.12C66.4733 35.9973 66.4786 35.8293 66.4786 35.616V33.688H67.8466V36.504H70.5026V37.704H67.8466V41.824C67.8466 41.9413 67.8466 42.056 67.8466 42.168C67.8466 42.28 67.8466 42.384 67.8466 42.48C67.8466 42.9333 67.9 43.288 68.0066 43.544C68.1186 43.8 68.3666 43.928 68.7506 43.928C68.9053 43.928 69.052 43.9147 69.1906 43.888C69.3293 43.8613 69.4333 43.8347 69.5026 43.808V44.992C69.412 45.024 69.284 45.0533 69.1186 45.08C68.9586 45.112 68.7773 45.128 68.5746 45.128ZM74.9819 45.152C74.3739 45.152 73.8672 45.048 73.4619 44.84C73.0565 44.6267 72.7339 44.352 72.4939 44.016C72.2592 43.68 72.0912 43.3173 71.9899 42.928C71.8939 42.5333 71.8459 42.1547 71.8459 41.792C71.8459 41.5893 71.8459 41.3813 71.8459 41.168C71.8459 40.9493 71.8459 40.7307 71.8459 40.512V36.504H73.2139V40.336C73.2139 40.5333 73.2139 40.728 73.2139 40.92C73.2139 41.112 73.2139 41.2933 73.2139 41.464C73.2139 41.896 73.2725 42.296 73.3899 42.664C73.5125 43.032 73.7232 43.3307 74.0219 43.56C74.3205 43.784 74.7312 43.896 75.2539 43.896C75.7445 43.896 76.1739 43.7493 76.5419 43.456C76.9099 43.1573 77.1979 42.7867 77.4059 42.344C77.6139 41.896 77.7179 41.4507 77.7179 41.008L78.5099 41.336C78.5099 41.8053 78.4272 42.2667 78.2619 42.72C78.0965 43.168 77.8592 43.576 77.5499 43.944C77.2459 44.312 76.8752 44.6053 76.4379 44.824C76.0059 45.0427 75.5205 45.152 74.9819 45.152ZM77.7179 45V36.504H79.0779V45H77.7179ZM84.5436 45.16C83.845 45.16 83.205 44.992 82.6236 44.656C82.0423 44.3147 81.5783 43.816 81.2316 43.16C80.885 42.4987 80.7116 41.6933 80.7116 40.744C80.7116 39.8107 80.8876 39.0187 81.2396 38.368C81.5916 37.7173 82.0583 37.224 82.6396 36.888C83.221 36.5467 83.8556 36.376 84.5436 36.376C85.1996 36.376 85.813 36.5333 86.3836 36.848C86.9596 37.1573 87.4236 37.5893 87.7756 38.144C88.1276 38.6987 88.3036 39.3413 88.3036 40.072C88.3036 40.088 88.3036 40.104 88.3036 40.12C88.3036 40.136 88.3036 40.152 88.3036 40.168L87.3276 40.208C87.3276 40.192 87.3276 40.176 87.3276 40.16C87.3276 40.1387 87.3276 40.12 87.3276 40.104C87.3276 39.64 87.205 39.2213 86.9596 38.848C86.7196 38.4747 86.4023 38.1787 86.0076 37.96C85.613 37.736 85.189 37.624 84.7356 37.624C83.9783 37.624 83.3516 37.88 82.8556 38.392C82.3596 38.8987 82.1116 39.6827 82.1116 40.744C82.1116 41.8 82.3596 42.5867 82.8556 43.104C83.357 43.616 83.9836 43.872 84.7356 43.872C85.2103 43.872 85.6423 43.7573 86.0316 43.528C86.4263 43.2987 86.741 42.992 86.9756 42.608C87.2103 42.2187 87.3276 41.784 87.3276 41.304L88.3036 41.328C88.3036 42.0533 88.1356 42.7067 87.7996 43.288C87.4636 43.864 87.0103 44.32 86.4396 44.656C85.8743 44.992 85.2423 45.16 84.5436 45.16ZM87.3276 45V32.496H88.6956V45H87.3276ZM90.7665 45V36.504H92.1105V45H90.7665ZM91.4465 34.552C91.1958 34.552 90.9772 34.4827 90.7905 34.344C90.6092 34.2 90.5185 34.0053 90.5185 33.76C90.5185 33.52 90.6092 33.3307 90.7905 33.192C90.9772 33.048 91.1958 32.976 91.4465 32.976C91.6972 32.976 91.9132 33.048 92.0945 33.192C92.2758 33.3307 92.3665 33.52 92.3665 33.76C92.3665 34.0053 92.2758 34.2 92.0945 34.344C91.9132 34.4827 91.6972 34.552 91.4465 34.552ZM98.2636 45.152C97.4103 45.152 96.6556 44.9627 95.9996 44.584C95.349 44.2 94.837 43.6773 94.4636 43.016C94.0956 42.3493 93.9116 41.592 93.9116 40.744C93.9116 39.896 94.0956 39.144 94.4636 38.488C94.837 37.832 95.349 37.3173 95.9996 36.944C96.6556 36.5707 97.4103 36.384 98.2636 36.384C99.117 36.384 99.869 36.5707 100.52 36.944C101.176 37.3173 101.688 37.832 102.056 38.488C102.429 39.144 102.616 39.896 102.616 40.744C102.616 41.592 102.429 42.3493 102.056 43.016C101.688 43.6773 101.176 44.2 100.52 44.584C99.869 44.9627 99.117 45.152 98.2636 45.152ZM98.2636 43.904C98.8503 43.904 99.3676 43.7733 99.8156 43.512C100.264 43.2507 100.613 42.8827 100.864 42.408C101.12 41.9333 101.248 41.3787 101.248 40.744C101.248 40.1093 101.12 39.56 100.864 39.096C100.613 38.6267 100.264 38.2667 99.8156 38.016C99.3676 37.76 98.8503 37.632 98.2636 37.632C97.6823 37.632 97.165 37.76 96.7116 38.016C96.2636 38.2667 95.9116 38.6267 95.6556 39.096C95.405 39.56 95.2796 40.1093 95.2796 40.744C95.2796 41.3787 95.405 41.9333 95.6556 42.408C95.9116 42.8827 96.2636 43.2507 96.7116 43.512C97.165 43.7733 97.6823 43.904 98.2636 43.904Z" fill="#FFFBE9"/>
</svg>
